<?xml version="1.0" standalone="no"?>
<!DOCTYPE svg PUBLIC "-//W3C//DTD SVG 20010904//EN"
 "http://www.w3.org/TR/2001/REC-SVG-20010904/DTD/svg10.dtd">
<svg version="1.0" xmlns="http://www.w3.org/2000/svg"
 width="360.000000pt" height="360.000000pt" viewBox="0 0 360.000000 360.000000"
 preserveAspectRatio="xMidYMid meet">

<g transform="translate(0.000000,360.000000) scale(0.100000,-0.100000)"
fill="#000000" stroke="none">
<path d="M0 1800 l0 -1800 1800 0 1800 0 0 1800 0 1800 -1800 0 -1800 0 0
-1800z m1316 1405 c8 -32 -1 -56 -20 -49 -14 5 -28 52 -19 66 10 17 33 7 39
-17z m94 -50 c0 -17 -46 -39 -67 -31 -17 7 -17 33 0 39 28 12 67 7 67 -8z
m-116 -24 c8 -12 -13 -28 -47 -36 -23 -6 -27 -4 -27 13 0 20 15 28 52 31 9 0
19 -3 22 -8z m58 -56 c6 -30 -14 -52 -30 -33 -25 31 -14 90 13 68 7 -6 15 -22
17 -35z m1691 -145 c26 -16 47 -35 47 -42 -1 -17 -89 -70 -106 -64 -22 8 -16
24 16 43 17 9 30 20 30 23 0 3 -14 13 -30 22 -20 11 -28 22 -24 32 8 22 13 21
67 -14z m-563 -125 c46 -24 60 -62 60 -166 l0 -92 -102 -179 c-72 -128 -106
-178 -117 -176 -14 3 -16 28 -16 196 l0 192 -622 0 -621 0 1 -892 c2 -887 2
-893 -18 -893 -20 0 -20 7 -20 910 l0 910 658 3 657 2 0 -160 c0 -88 3 -160 8
-160 4 0 40 58 80 128 l72 128 0 87 c0 80 -2 90 -25 112 l-24 25 -764 0 c-758
0 -765 0 -791 -21 l-26 -20 0 -1029 c0 -997 1 -1028 19 -1051 l19 -24 749 -3
c411 -2 763 0 780 3 59 11 63 31 63 325 l0 261 -72 -40 -73 -40 -5 -173 c-5
-165 -6 -173 -25 -173 -19 0 -20 8 -23 145 -2 80 0 164 3 186 5 37 11 44 58
69 29 15 73 41 100 57 79 50 77 59 77 -279 0 -291 0 -297 -22 -330 -13 -18
-34 -37 -48 -43 -17 -7 -281 -9 -801 -8 -761 3 -777 3 -799 23 -52 46 -50 12
-50 1090 0 1092 -2 1048 55 1093 l28 22 774 0 c672 0 778 -2 803 -15z m487
-172 c10 -11 54 -50 99 -87 98 -81 123 -122 103 -173 -13 -35 -118 -163 -133
-163 -11 0 -321 272 -324 284 -2 7 31 48 71 91 l75 78 46 -5 c28 -3 53 -13 63
-25z m-137 -327 c85 -74 156 -141 158 -148 1 -7 -17 -35 -41 -63 l-44 -49
-166 143 c-98 85 -164 148 -160 155 18 30 78 96 88 96 6 0 80 -61 165 -134z
m-720 109 c68 -35 78 -132 21 -189 l-31 -31 -408 -3 c-437 -2 -436 -2 -475 50
-23 31 -27 95 -9 130 31 57 31 57 470 58 341 0 408 -2 432 -15z m542 -222
c205 -175 212 -182 202 -202 -8 -16 -128 -159 -537 -638 -49 -57 -92 -103 -97
-103 -9 0 -285 236 -314 269 -19 21 -19 22 1 44 29 32 250 291 378 442 139
164 245 285 250 285 2 0 55 -43 117 -97z m-546 -149 c73 -35 86 -141 25 -196
l-31 -28 -213 -2 c-460 -4 -612 -2 -635 11 -37 20 -56 59 -55 113 1 52 25 91
68 108 11 5 197 9 413 9 345 1 398 -1 428 -15z m-1606 -194 c0 -11 -7 -20 -15
-20 -9 0 -15 -9 -15 -24 0 -27 -29 -44 -42 -24 -12 20 -10 25 12 31 14 3 20
14 20 31 0 19 5 26 20 26 13 0 20 -7 20 -20z m52 -42 c-14 -14 -42 -3 -42 16
0 8 8 16 18 18 21 5 38 -20 24 -34z m-28 -34 c8 -21 8 -21 -13 -27 -23 -6 -38
22 -19 35 19 11 25 10 32 -8z m1204 -95 c40 -14 72 -65 72 -114 0 -49 -32
-100 -72 -114 -18 -7 -115 -11 -238 -11 -199 0 -208 1 -241 23 -71 48 -71 156
0 204 33 22 42 23 241 23 123 0 220 -4 238 -11z m265 -275 c167 -144 197 -173
197 -189 0 -8 -1 -15 -3 -15 -1 0 -81 -34 -176 -75 -194 -83 -234 -91 -253
-49 -11 23 -6 53 36 218 27 105 51 194 53 199 11 19 43 0 146 -89z m832 -109
c42 -41 30 -102 -24 -124 -83 -35 -142 90 -63 133 39 22 59 19 87 -9z m-1773
-792 c24 -21 23 -58 -2 -83 -27 -27 -55 -25 -79 6 -25 32 -26 43 -5 72 18 26
60 29 86 5z m1413 -53 c0 -12 -17 -16 -77 -18 -73 -3 -78 -2 -78 18 0 20 5 21
78 18 60 -2 77 -6 77 -18z m-80 -60 c0 -12 -23 -15 -139 -18 -134 -2 -166 3
-151 27 4 8 52 11 148 9 118 -3 142 -6 142 -18z"/>
<path d="M2810 2559 c-29 -33 -51 -62 -49 -63 2 -2 65 -56 139 -120 l135 -117
37 43 c20 24 45 57 54 74 23 43 10 63 -109 162 -123 104 -134 105 -207 21z"/>
<path d="M2646 2368 c-9 -12 -16 -25 -16 -29 0 -3 60 -58 134 -122 l134 -116
23 25 24 25 -46 42 c-74 68 -219 192 -229 195 -4 2 -15 -7 -24 -20z"/>
<path d="M1260 2370 c-31 -31 -27 -93 6 -119 26 -20 37 -21 421 -21 l394 0 24
25 c33 32 33 78 0 110 l-24 25 -401 0 c-387 0 -401 -1 -420 -20z"/>
<path d="M2350 2018 c-101 -117 -201 -235 -224 -262 -22 -27 -72 -84 -109
-127 -38 -44 -67 -83 -65 -88 1 -5 48 -48 103 -96 55 -49 114 -101 131 -117
l31 -29 189 222 c104 122 237 278 297 347 59 69 107 128 107 132 0 9 -261 230
-272 230 -3 0 -88 -96 -188 -212z m235 -171 c0 -20 -253 -317 -271 -317 -32 0
-8 39 104 167 64 74 124 143 132 153 17 22 35 21 35 -3z"/>
<path d="M1290 2013 c-52 -19 -69 -94 -30 -133 19 -19 33 -20 424 -20 l405 0
21 27 c27 35 21 89 -12 115 -21 16 -56 18 -408 17 -212 0 -392 -3 -400 -6z"/>
<path d="M1257 1622 c-24 -26 -22 -87 3 -112 19 -19 33 -20 239 -20 l220 0 20
26 c27 34 27 78 1 104 -19 19 -33 20 -243 20 -204 0 -225 -2 -240 -18z"/>
<path d="M1832 1272 c-23 -92 -43 -171 -42 -176 0 -4 12 -6 28 -3 33 6 312
128 311 136 0 6 -60 57 -190 164 -32 26 -59 47 -61 47 -2 0 -22 -75 -46 -168z"/>
<path d="M2755 1266 c-27 -20 -15 -51 20 -51 23 0 31 5 33 22 4 29 -28 47 -53
29z"/>
<path d="M1000 466 c0 -9 7 -16 16 -16 9 0 14 5 12 12 -6 18 -28 21 -28 4z"/>
</g>
</svg>
